<svg width="480" height="37" viewBox="0 0 480 37" fill="none" xmlns="http://www.w3.org/2000/svg">
<path d="M137.2 36.4C136.033 36.4 135.2 36 134.7 35.2C134.2 34.4 134.217 33.4333 134.75 32.3L147.95 3.05C148.383 2.08333 148.9 1.4 149.5 0.999998C150.133 0.566664 150.85 0.349997 151.65 0.349997C152.417 0.349997 153.1 0.566664 153.7 0.999998C154.333 1.4 154.867 2.08333 155.3 3.05L168.55 32.3C169.083 33.4667 169.117 34.45 168.65 35.25C168.183 36.0167 167.383 36.4 166.25 36.4C165.317 36.4 164.583 36.1833 164.05 35.75C163.55 35.2833 163.1 34.5833 162.7 33.65L160.2 27.85H143L140.55 33.65C140.117 34.6167 139.667 35.3167 139.2 35.75C138.733 36.1833 138.067 36.4 137.2 36.4ZM151.55 7.7L145.2 22.75H158L151.65 7.7H151.55ZM187.557 36.5C185.757 36.5 184.157 36.1167 182.757 35.35C181.357 34.55 180.307 33.4833 179.607 32.15V33.2C179.607 35.3333 178.59 36.4 176.557 36.4C174.49 36.4 173.457 35.3333 173.457 33.2V3.5C173.457 1.4 174.49 0.349997 176.557 0.349997C178.657 0.349997 179.707 1.4 179.707 3.5V15.15C180.44 13.9167 181.49 12.9333 182.857 12.2C184.257 11.4333 185.824 11.05 187.557 11.05C189.724 11.05 191.607 11.5667 193.207 12.6C194.807 13.6333 196.057 15.1 196.957 17C197.857 18.8667 198.307 21.1167 198.307 23.75C198.307 26.35 197.857 28.6167 196.957 30.55C196.057 32.45 194.79 33.9167 193.157 34.95C191.557 35.9833 189.69 36.5 187.557 36.5ZM185.807 31.75C187.674 31.75 189.174 31.0833 190.307 29.75C191.44 28.3833 192.007 26.3833 192.007 23.75C192.007 21.0833 191.44 19.1 190.307 17.8C189.174 16.4667 187.674 15.8 185.807 15.8C183.94 15.8 182.44 16.4667 181.307 17.8C180.174 19.1 179.607 21.0833 179.607 23.75C179.607 26.3833 180.174 28.3833 181.307 29.75C182.44 31.0833 183.94 31.75 185.807 31.75ZM214.588 36.5C212.054 36.5 209.854 35.9833 207.988 34.95C206.121 33.9167 204.671 32.45 203.638 30.55C202.604 28.6167 202.088 26.35 202.088 23.75C202.088 21.15 202.604 18.9 203.638 17C204.671 15.1 206.121 13.6333 207.988 12.6C209.854 11.5667 212.054 11.05 214.588 11.05C217.121 11.05 219.321 11.5667 221.188 12.6C223.054 13.6333 224.504 15.1 225.538 17C226.571 18.9 227.088 21.15 227.088 23.75C227.088 26.35 226.571 28.6167 225.538 30.55C224.504 32.45 223.054 33.9167 221.188 34.95C219.321 35.9833 217.121 36.5 214.588 36.5ZM214.588 31.75C216.454 31.75 217.954 31.0833 219.088 29.75C220.221 28.3833 220.788 26.3833 220.788 23.75C220.788 21.0833 220.221 19.1 219.088 17.8C217.954 16.4667 216.454 15.8 214.588 15.8C212.721 15.8 211.221 16.4667 210.088 17.8C208.954 19.1 208.388 21.0833 208.388 23.75C208.388 26.3833 208.954 28.3833 210.088 29.75C211.221 31.0833 212.721 31.75 214.588 31.75ZM241.096 36.5C235.096 36.5 232.096 33.1333 232.096 26.4V14.3C232.096 12.2 233.129 11.15 235.196 11.15C237.296 11.15 238.346 12.2 238.346 14.3V26.5C238.346 28.2333 238.696 29.5167 239.396 30.35C240.096 31.1833 241.213 31.6 242.746 31.6C244.413 31.6 245.779 31.0333 246.846 29.9C247.913 28.7333 248.446 27.2 248.446 25.3V14.3C248.446 12.2 249.479 11.15 251.546 11.15C253.646 11.15 254.696 12.2 254.696 14.3V33.2C254.696 35.3333 253.679 36.4 251.646 36.4C249.613 36.4 248.596 35.3333 248.596 33.2V32.35C246.963 35.1167 244.463 36.5 241.096 36.5ZM272.401 36.5C265.935 36.5 262.701 33.3 262.701 26.9V16.25H260.101C258.435 16.25 257.601 15.4667 257.601 13.9C257.601 12.3333 258.435 11.55 260.101 11.55H262.701V7C262.701 4.9 263.751 3.85 265.851 3.85C267.918 3.85 268.951 4.9 268.951 7V11.55H274.251C275.918 11.55 276.751 12.3333 276.751 13.9C276.751 15.4667 275.918 16.25 274.251 16.25H268.951V26.55C268.951 28.15 269.301 29.35 270.001 30.15C270.701 30.95 271.835 31.35 273.401 31.35C273.968 31.35 274.468 31.3 274.901 31.2C275.335 31.1 275.718 31.0333 276.051 31C276.451 30.9667 276.785 31.1 277.051 31.4C277.318 31.6667 277.451 32.2333 277.451 33.1C277.451 33.7667 277.335 34.3667 277.101 34.9C276.901 35.4 276.518 35.75 275.951 35.95C275.518 36.0833 274.951 36.2 274.251 36.3C273.551 36.4333 272.935 36.5 272.401 36.5Z" fill="#F79130"/>
<path d="M309.215 36.5C304.382 36.5 300.682 35.25 298.115 32.75C295.582 30.2167 294.315 26.4833 294.315 21.55V3.6C294.315 1.43333 295.382 0.349997 297.515 0.349997C299.648 0.349997 300.715 1.43333 300.715 3.6V21.5C300.715 24.6667 301.432 27.05 302.865 28.65C304.332 30.2167 306.448 31 309.215 31C314.848 31 317.665 27.8333 317.665 21.5V3.6C317.665 1.43333 318.732 0.349997 320.865 0.349997C322.965 0.349997 324.015 1.43333 324.015 3.6V21.55C324.015 26.4833 322.765 30.2167 320.265 32.75C317.765 35.25 314.082 36.5 309.215 36.5ZM339.829 36.5C338.396 36.5 336.879 36.35 335.279 36.05C333.679 35.75 332.246 35.2333 330.979 34.5C330.279 34.1 329.846 33.6167 329.679 33.05C329.512 32.45 329.529 31.9 329.729 31.4C329.962 30.8667 330.329 30.4833 330.829 30.25C331.362 30.0167 331.979 30.0667 332.679 30.4C334.012 31.0333 335.262 31.4833 336.429 31.75C337.596 31.9833 338.746 32.1 339.879 32.1C341.479 32.1 342.662 31.8333 343.429 31.3C344.229 30.7333 344.629 30 344.629 29.1C344.629 27.7 343.596 26.8 341.529 26.4L336.529 25.45C332.296 24.65 330.179 22.45 330.179 18.85C330.179 17.25 330.612 15.8667 331.479 14.7C332.379 13.5333 333.612 12.6333 335.179 12C336.746 11.3667 338.546 11.05 340.579 11.05C343.512 11.05 346.129 11.7 348.429 13C349.062 13.3333 349.429 13.8 349.529 14.4C349.662 14.9667 349.596 15.5167 349.329 16.05C349.096 16.55 348.712 16.9167 348.179 17.15C347.646 17.35 347.029 17.2833 346.329 16.95C345.296 16.4167 344.296 16.0333 343.329 15.8C342.396 15.5667 341.496 15.45 340.629 15.45C338.996 15.45 337.779 15.7333 336.979 16.3C336.212 16.8667 335.829 17.6167 335.829 18.55C335.829 20.0167 336.779 20.9167 338.679 21.25L343.679 22.2C345.846 22.6 347.479 23.3333 348.579 24.4C349.712 25.4667 350.279 26.9 350.279 28.7C350.279 31.1333 349.329 33.05 347.429 34.45C345.529 35.8167 342.996 36.5 339.829 36.5Z" fill="black"/>
<line y1="15" x2="92" y2="15" stroke="#F79130" stroke-width="6"/>
<line x1="388" y1="15" x2="480" y2="15" stroke="black" stroke-width="6"/>
<line x1="20.9647" y1="30.0002" x2="105.965" y2="29.0002" stroke="black" stroke-width="6"/>
<line x1="372" y1="29" x2="457" y2="29" stroke="#F79130" stroke-width="6"/>
</svg>
