<svg width="200" height="200" viewBox="0 0 200 200" fill="none" xmlns="http://www.w3.org/2000/svg">
<circle r="100" transform="matrix(-1 0 0 1 100 100)" fill="#1877F2"/>
<path d="M156 104L99.293 52.4053" stroke="white"/>
<path d="M156 86L99.293 34.4053" stroke="white"/>
<path d="M43 103.595L99.707 52" stroke="white"/>
<path d="M43 85.5947L99.707 34" stroke="white"/>
<path d="M51.7188 135.35H48.1152L48.0957 133.836H51.3672C51.9076 133.836 52.3796 133.745 52.7832 133.562C53.1868 133.38 53.4993 133.12 53.7207 132.781C53.9486 132.436 54.0625 132.026 54.0625 131.551C54.0625 131.03 53.9616 130.607 53.7598 130.281C53.5645 129.949 53.2617 129.708 52.8516 129.559C52.4479 129.402 51.9336 129.324 51.3086 129.324H48.5352V142H46.6504V127.781H51.3086C52.0378 127.781 52.6888 127.856 53.2617 128.006C53.8346 128.149 54.3197 128.377 54.7168 128.689C55.1204 128.995 55.4264 129.386 55.6348 129.861C55.8431 130.337 55.9473 130.906 55.9473 131.57C55.9473 132.156 55.7975 132.687 55.498 133.162C55.1986 133.631 54.7819 134.015 54.248 134.314C53.7207 134.614 53.1022 134.806 52.3926 134.891L51.7188 135.35ZM51.6309 142H47.373L48.4375 140.467H51.6309C52.2298 140.467 52.7376 140.363 53.1543 140.154C53.5775 139.946 53.8997 139.653 54.1211 139.275C54.3424 138.891 54.4531 138.439 54.4531 137.918C54.4531 137.391 54.3587 136.935 54.1699 136.551C53.9811 136.167 53.6849 135.87 53.2812 135.662C52.8776 135.454 52.3568 135.35 51.7188 135.35H49.0332L49.0527 133.836H52.7246L53.125 134.383C53.8086 134.441 54.388 134.637 54.8633 134.969C55.3385 135.294 55.6999 135.711 55.9473 136.219C56.2012 136.727 56.3281 137.286 56.3281 137.898C56.3281 138.784 56.1328 139.533 55.7422 140.145C55.3581 140.75 54.8145 141.212 54.1113 141.531C53.4082 141.844 52.5814 142 51.6309 142ZM65.0684 140.193V134.754C65.0684 134.337 64.9837 133.976 64.8145 133.67C64.6517 133.357 64.4043 133.117 64.0723 132.947C63.7402 132.778 63.3301 132.693 62.8418 132.693C62.3861 132.693 61.9857 132.771 61.6406 132.928C61.3021 133.084 61.0352 133.289 60.8398 133.543C60.651 133.797 60.5566 134.07 60.5566 134.363H58.75C58.75 133.986 58.8477 133.611 59.043 133.24C59.2383 132.869 59.5182 132.534 59.8828 132.234C60.2539 131.928 60.6966 131.688 61.2109 131.512C61.7318 131.329 62.3112 131.238 62.9492 131.238C63.7174 131.238 64.3945 131.368 64.9805 131.629C65.5729 131.889 66.0352 132.283 66.3672 132.811C66.7057 133.331 66.875 133.986 66.875 134.773V139.695C66.875 140.047 66.9043 140.421 66.9629 140.818C67.028 141.215 67.1224 141.557 67.2461 141.844V142H65.3613C65.2702 141.792 65.1986 141.515 65.1465 141.17C65.0944 140.818 65.0684 140.493 65.0684 140.193ZM65.3809 135.594L65.4004 136.863H63.5742C63.0599 136.863 62.6009 136.906 62.1973 136.99C61.7936 137.068 61.4551 137.189 61.1816 137.352C60.9082 137.514 60.6999 137.719 60.5566 137.967C60.4134 138.208 60.3418 138.491 60.3418 138.816C60.3418 139.148 60.4167 139.451 60.5664 139.725C60.7161 139.998 60.9408 140.216 61.2402 140.379C61.5462 140.535 61.9206 140.613 62.3633 140.613C62.9167 140.613 63.4049 140.496 63.8281 140.262C64.2513 140.027 64.5866 139.741 64.834 139.402C65.0879 139.064 65.2246 138.735 65.2441 138.416L66.0156 139.285C65.9701 139.559 65.8464 139.861 65.6445 140.193C65.4427 140.525 65.1725 140.844 64.834 141.15C64.502 141.45 64.1048 141.701 63.6426 141.902C63.1868 142.098 62.6725 142.195 62.0996 142.195C61.3835 142.195 60.7552 142.055 60.2148 141.775C59.681 141.495 59.2643 141.121 58.9648 140.652C58.6719 140.177 58.5254 139.646 58.5254 139.061C58.5254 138.494 58.6361 137.996 58.8574 137.566C59.0788 137.13 59.3978 136.769 59.8145 136.482C60.2311 136.189 60.7324 135.968 61.3184 135.818C61.9043 135.669 62.5586 135.594 63.2812 135.594H65.3809ZM73.9453 140.711C74.375 140.711 74.7721 140.623 75.1367 140.447C75.5013 140.271 75.8008 140.031 76.0352 139.725C76.2695 139.412 76.403 139.057 76.4355 138.66H78.1543C78.1217 139.285 77.9102 139.868 77.5195 140.408C77.1354 140.942 76.6309 141.375 76.0059 141.707C75.3809 142.033 74.694 142.195 73.9453 142.195C73.151 142.195 72.4577 142.055 71.8652 141.775C71.2793 141.495 70.791 141.111 70.4004 140.623C70.0163 140.135 69.7266 139.575 69.5312 138.943C69.3424 138.305 69.248 137.632 69.248 136.922V136.512C69.248 135.802 69.3424 135.132 69.5312 134.5C69.7266 133.862 70.0163 133.299 70.4004 132.811C70.791 132.322 71.2793 131.938 71.8652 131.658C72.4577 131.378 73.151 131.238 73.9453 131.238C74.7721 131.238 75.4948 131.408 76.1133 131.746C76.7318 132.078 77.2168 132.534 77.5684 133.113C77.9264 133.686 78.1217 134.337 78.1543 135.066H76.4355C76.403 134.63 76.2793 134.236 76.0645 133.885C75.8561 133.533 75.5697 133.253 75.2051 133.045C74.847 132.83 74.4271 132.723 73.9453 132.723C73.3919 132.723 72.9264 132.833 72.5488 133.055C72.1777 133.27 71.8815 133.562 71.6602 133.934C71.4453 134.298 71.2891 134.705 71.1914 135.154C71.1003 135.597 71.0547 136.049 71.0547 136.512V136.922C71.0547 137.384 71.1003 137.84 71.1914 138.289C71.2826 138.738 71.4355 139.145 71.6504 139.51C71.8717 139.874 72.168 140.167 72.5391 140.389C72.9167 140.604 73.3854 140.711 73.9453 140.711ZM82.002 127V142H80.1855V127H82.002ZM88.457 131.434L83.8477 136.365L81.2695 139.041L81.123 137.117L82.9688 134.91L86.25 131.434H88.457ZM86.8066 142L83.0371 136.961L83.9746 135.35L88.9355 142H86.8066ZM100.42 127.781V142H98.5645V127.781H100.42ZM104.99 127.781V129.324H94.0039V127.781H104.99ZM105.371 136.834V136.609C105.371 135.848 105.482 135.141 105.703 134.49C105.924 133.833 106.243 133.263 106.66 132.781C107.077 132.293 107.581 131.915 108.174 131.648C108.766 131.375 109.43 131.238 110.166 131.238C110.908 131.238 111.576 131.375 112.168 131.648C112.767 131.915 113.275 132.293 113.691 132.781C114.115 133.263 114.437 133.833 114.658 134.49C114.88 135.141 114.99 135.848 114.99 136.609V136.834C114.99 137.596 114.88 138.302 114.658 138.953C114.437 139.604 114.115 140.174 113.691 140.662C113.275 141.144 112.77 141.521 112.178 141.795C111.592 142.062 110.928 142.195 110.186 142.195C109.443 142.195 108.776 142.062 108.184 141.795C107.591 141.521 107.083 141.144 106.66 140.662C106.243 140.174 105.924 139.604 105.703 138.953C105.482 138.302 105.371 137.596 105.371 136.834ZM107.178 136.609V136.834C107.178 137.361 107.24 137.859 107.363 138.328C107.487 138.79 107.673 139.201 107.92 139.559C108.174 139.917 108.49 140.2 108.867 140.408C109.245 140.61 109.684 140.711 110.186 140.711C110.68 140.711 111.113 140.61 111.484 140.408C111.862 140.2 112.174 139.917 112.422 139.559C112.669 139.201 112.855 138.79 112.979 138.328C113.109 137.859 113.174 137.361 113.174 136.834V136.609C113.174 136.089 113.109 135.597 112.979 135.135C112.855 134.666 112.666 134.253 112.412 133.895C112.165 133.53 111.852 133.243 111.475 133.035C111.104 132.827 110.667 132.723 110.166 132.723C109.671 132.723 109.235 132.827 108.857 133.035C108.486 133.243 108.174 133.53 107.92 133.895C107.673 134.253 107.487 134.666 107.363 135.135C107.24 135.597 107.178 136.089 107.178 136.609ZM127.354 127.781V142H125.498V127.781H127.354ZM131.924 127.781V129.324H120.938V127.781H131.924ZM132.305 136.834V136.609C132.305 135.848 132.415 135.141 132.637 134.49C132.858 133.833 133.177 133.263 133.594 132.781C134.01 132.293 134.515 131.915 135.107 131.648C135.7 131.375 136.364 131.238 137.1 131.238C137.842 131.238 138.509 131.375 139.102 131.648C139.701 131.915 140.208 132.293 140.625 132.781C141.048 133.263 141.37 133.833 141.592 134.49C141.813 135.141 141.924 135.848 141.924 136.609V136.834C141.924 137.596 141.813 138.302 141.592 138.953C141.37 139.604 141.048 140.174 140.625 140.662C140.208 141.144 139.704 141.521 139.111 141.795C138.525 142.062 137.861 142.195 137.119 142.195C136.377 142.195 135.71 142.062 135.117 141.795C134.525 141.521 134.017 141.144 133.594 140.662C133.177 140.174 132.858 139.604 132.637 138.953C132.415 138.302 132.305 137.596 132.305 136.834ZM134.111 136.609V136.834C134.111 137.361 134.173 137.859 134.297 138.328C134.421 138.79 134.606 139.201 134.854 139.559C135.107 139.917 135.423 140.2 135.801 140.408C136.178 140.61 136.618 140.711 137.119 140.711C137.614 140.711 138.047 140.61 138.418 140.408C138.796 140.2 139.108 139.917 139.355 139.559C139.603 139.201 139.788 138.79 139.912 138.328C140.042 137.859 140.107 137.361 140.107 136.834V136.609C140.107 136.089 140.042 135.597 139.912 135.135C139.788 134.666 139.6 134.253 139.346 133.895C139.098 133.53 138.786 133.243 138.408 133.035C138.037 132.827 137.601 132.723 137.1 132.723C136.605 132.723 136.169 132.827 135.791 133.035C135.42 133.243 135.107 133.53 134.854 133.895C134.606 134.253 134.421 134.666 134.297 135.135C134.173 135.597 134.111 136.089 134.111 136.609ZM145.996 133.465V146.062H144.18V131.434H145.84L145.996 133.465ZM153.115 136.629V136.834C153.115 137.602 153.024 138.315 152.842 138.973C152.66 139.624 152.393 140.19 152.041 140.672C151.696 141.154 151.27 141.528 150.762 141.795C150.254 142.062 149.671 142.195 149.014 142.195C148.343 142.195 147.751 142.085 147.236 141.863C146.722 141.642 146.286 141.32 145.928 140.896C145.57 140.473 145.283 139.965 145.068 139.373C144.86 138.781 144.717 138.113 144.639 137.371V136.277C144.717 135.496 144.863 134.796 145.078 134.178C145.293 133.559 145.576 133.032 145.928 132.596C146.286 132.153 146.719 131.818 147.227 131.59C147.734 131.355 148.32 131.238 148.984 131.238C149.648 131.238 150.238 131.368 150.752 131.629C151.266 131.883 151.699 132.247 152.051 132.723C152.402 133.198 152.666 133.768 152.842 134.432C153.024 135.089 153.115 135.822 153.115 136.629ZM151.299 136.834V136.629C151.299 136.102 151.243 135.607 151.133 135.145C151.022 134.676 150.85 134.266 150.615 133.914C150.387 133.556 150.094 133.276 149.736 133.074C149.378 132.866 148.952 132.762 148.457 132.762C148.001 132.762 147.604 132.84 147.266 132.996C146.934 133.152 146.65 133.364 146.416 133.631C146.182 133.891 145.99 134.191 145.84 134.529C145.697 134.861 145.589 135.206 145.518 135.564V138.094C145.648 138.549 145.83 138.979 146.064 139.383C146.299 139.78 146.611 140.102 147.002 140.35C147.393 140.59 147.884 140.711 148.477 140.711C148.965 140.711 149.385 140.61 149.736 140.408C150.094 140.2 150.387 139.917 150.615 139.559C150.85 139.201 151.022 138.79 151.133 138.328C151.243 137.859 151.299 137.361 151.299 136.834Z" fill="black"/>
</svg>
