<svg width="542" height="37" viewBox="0 0 542 37" fill="none" xmlns="http://www.w3.org/2000/svg">
<path d="M146.9 36.6C143.333 36.6 140.1 35.8333 137.2 34.3C134.333 32.7333 132.067 30.5833 130.4 27.85C128.767 25.0833 127.95 21.9667 127.95 18.5C127.95 15.0333 128.767 11.9333 130.4 9.2C132.067 6.43333 134.333 4.28333 137.2 2.75C140.1 1.18333 143.35 0.399999 146.95 0.399999C149.983 0.399999 152.717 0.933333 155.15 2C157.617 3.06667 159.683 4.6 161.35 6.6L156.15 11.4C153.783 8.66667 150.85 7.3 147.35 7.3C145.183 7.3 143.25 7.78333 141.55 8.75C139.85 9.68333 138.517 11 137.55 12.7C136.617 14.4 136.15 16.3333 136.15 18.5C136.15 20.6667 136.617 22.6 137.55 24.3C138.517 26 139.85 27.3333 141.55 28.3C143.25 29.2333 145.183 29.7 147.35 29.7C150.85 29.7 153.783 28.3167 156.15 25.55L161.35 30.35C159.683 32.3833 157.617 33.9333 155.15 35C152.683 36.0667 149.933 36.6 146.9 36.6ZM178.142 36.4C175.309 36.4 172.759 35.8167 170.492 34.65C168.259 33.45 166.509 31.8 165.242 29.7C163.976 27.6 163.342 25.2167 163.342 22.55C163.342 19.8833 163.976 17.5 165.242 15.4C166.509 13.3 168.259 11.6667 170.492 10.5C172.759 9.3 175.309 8.7 178.142 8.7C180.976 8.7 183.509 9.3 185.742 10.5C187.976 11.6667 189.726 13.3 190.992 15.4C192.259 17.5 192.892 19.8833 192.892 22.55C192.892 25.2167 192.259 27.6 190.992 29.7C189.726 31.8 187.976 33.45 185.742 34.65C183.509 35.8167 180.976 36.4 178.142 36.4ZM178.142 30C180.142 30 181.776 29.3333 183.042 28C184.342 26.6333 184.992 24.8167 184.992 22.55C184.992 20.2833 184.342 18.4833 183.042 17.15C181.776 15.7833 180.142 15.1 178.142 15.1C176.142 15.1 174.492 15.7833 173.192 17.15C171.892 18.4833 171.242 20.2833 171.242 22.55C171.242 24.8167 171.892 26.6333 173.192 28C174.492 29.3333 176.142 30 178.142 30ZM214.456 8.7C217.789 8.7 220.473 9.7 222.506 11.7C224.573 13.7 225.606 16.6667 225.606 20.6V36H217.806V21.8C217.806 19.6667 217.339 18.0833 216.406 17.05C215.473 15.9833 214.123 15.45 212.356 15.45C210.389 15.45 208.823 16.0667 207.656 17.3C206.489 18.5 205.906 20.3 205.906 22.7V36H198.106V9.1H205.556V12.25C206.589 11.1167 207.873 10.25 209.406 9.65C210.939 9.01667 212.623 8.7 214.456 8.7ZM250.026 34.7C249.26 35.2667 248.31 35.7 247.176 36C246.076 36.2667 244.91 36.4 243.676 36.4C240.476 36.4 237.993 35.5833 236.226 33.95C234.493 32.3167 233.626 29.9167 233.626 26.75V15.7H229.476V9.7H233.626V3.15H241.426V9.7H248.126V15.7H241.426V26.65C241.426 27.7833 241.71 28.6667 242.276 29.3C242.876 29.9 243.71 30.2 244.776 30.2C246.01 30.2 247.06 29.8667 247.926 29.2L250.026 34.7ZM265.255 8.7C269.421 8.7 272.621 9.7 274.855 11.7C277.088 13.6667 278.205 16.65 278.205 20.65V36H270.905V32.65C269.438 35.15 266.705 36.4 262.705 36.4C260.638 36.4 258.838 36.05 257.305 35.35C255.805 34.65 254.655 33.6833 253.855 32.45C253.055 31.2167 252.655 29.8167 252.655 28.25C252.655 25.75 253.588 23.7833 255.455 22.35C257.355 20.9167 260.271 20.2 264.205 20.2H270.405C270.405 18.5 269.888 17.2 268.855 16.3C267.821 15.3667 266.271 14.9 264.205 14.9C262.771 14.9 261.355 15.1333 259.955 15.6C258.588 16.0333 257.421 16.6333 256.455 17.4L253.655 11.95C255.121 10.9167 256.871 10.1167 258.905 9.55C260.971 8.98333 263.088 8.7 265.255 8.7ZM264.655 31.15C265.988 31.15 267.171 30.85 268.205 30.25C269.238 29.6167 269.971 28.7 270.405 27.5V24.75H265.055C261.855 24.75 260.255 25.8 260.255 27.9C260.255 28.9 260.638 29.7 261.405 30.3C262.205 30.8667 263.288 31.15 264.655 31.15ZM298.557 36.4C295.69 36.4 293.107 35.8167 290.807 34.65C288.54 33.45 286.757 31.8 285.457 29.7C284.19 27.6 283.557 25.2167 283.557 22.55C283.557 19.8833 284.19 17.5 285.457 15.4C286.757 13.3 288.54 11.6667 290.807 10.5C293.107 9.3 295.69 8.7 298.557 8.7C301.39 8.7 303.857 9.3 305.957 10.5C308.09 11.6667 309.64 13.35 310.607 15.55L304.557 18.8C303.157 16.3333 301.14 15.1 298.507 15.1C296.474 15.1 294.79 15.7667 293.457 17.1C292.124 18.4333 291.457 20.25 291.457 22.55C291.457 24.85 292.124 26.6667 293.457 28C294.79 29.3333 296.474 30 298.507 30C301.174 30 303.19 28.7667 304.557 26.3L310.607 29.6C309.64 31.7333 308.09 33.4 305.957 34.6C303.857 35.8 301.39 36.4 298.557 36.4ZM332.839 34.7C332.072 35.2667 331.122 35.7 329.989 36C328.889 36.2667 327.722 36.4 326.489 36.4C323.289 36.4 320.805 35.5833 319.039 33.95C317.305 32.3167 316.439 29.9167 316.439 26.75V15.7H312.289V9.7H316.439V3.15H324.239V9.7H330.939V15.7H324.239V26.65C324.239 27.7833 324.522 28.6667 325.089 29.3C325.689 29.9 326.522 30.2 327.589 30.2C328.822 30.2 329.872 29.8667 330.739 29.2L332.839 34.7Z" fill="#F79130"/>
<path d="M367.477 36.6C362.477 36.6 358.577 35.2167 355.777 32.45C353.011 29.6833 351.627 25.7333 351.627 20.6V0.999998H359.727V20.3C359.727 26.5667 362.327 29.7 367.527 29.7C370.061 29.7 371.994 28.95 373.327 27.45C374.661 25.9167 375.327 23.5333 375.327 20.3V0.999998H383.327V20.6C383.327 25.7333 381.927 29.6833 379.127 32.45C376.361 35.2167 372.477 36.6 367.477 36.6ZM399.832 36.4C397.598 36.4 395.415 36.1333 393.282 35.6C391.148 35.0333 389.448 34.3333 388.182 33.5L390.782 27.9C391.982 28.6667 393.432 29.3 395.132 29.8C396.832 30.2667 398.498 30.5 400.132 30.5C403.432 30.5 405.082 29.6833 405.082 28.05C405.082 27.2833 404.632 26.7333 403.732 26.4C402.832 26.0667 401.448 25.7833 399.582 25.55C397.382 25.2167 395.565 24.8333 394.132 24.4C392.698 23.9667 391.448 23.2 390.382 22.1C389.348 21 388.832 19.4333 388.832 17.4C388.832 15.7 389.315 14.2 390.282 12.9C391.282 11.5667 392.715 10.5333 394.582 9.8C396.482 9.06667 398.715 8.7 401.282 8.7C403.182 8.7 405.065 8.91667 406.932 9.35C408.832 9.75 410.398 10.3167 411.632 11.05L409.032 16.6C406.665 15.2667 404.082 14.6 401.282 14.6C399.615 14.6 398.365 14.8333 397.532 15.3C396.698 15.7667 396.282 16.3667 396.282 17.1C396.282 17.9333 396.732 18.5167 397.632 18.85C398.532 19.1833 399.965 19.5 401.932 19.8C404.132 20.1667 405.932 20.5667 407.332 21C408.732 21.4 409.948 22.15 410.982 23.25C412.015 24.35 412.532 25.8833 412.532 27.85C412.532 29.5167 412.032 31 411.032 32.3C410.032 33.6 408.565 34.6167 406.632 35.35C404.732 36.05 402.465 36.4 399.832 36.4Z" fill="black"/>
<line y1="17" x2="92" y2="17" stroke="#F79130" stroke-width="6"/>
<line x1="450" y1="17" x2="542" y2="17" stroke="black" stroke-width="6"/>
<line x1="20.9647" y1="32.0002" x2="105.965" y2="31.0002" stroke="black" stroke-width="6"/>
<line x1="434" y1="31" x2="519" y2="31" stroke="#F79130" stroke-width="6"/>
</svg>
